inDegrees=no
num_controls=7
num_derivatives=13
num_iterations=124
num_multipliers=7
num_parameters=0
num_slacks=7
num_states=26
objective=0.446237
objective_accelerations=0.056729
objective_balance=0.003467
objective_effort=0.022478
objective_height=0.358017
objective_ligament=0.005547
solver_duration=1916.323247
status=Solve_Succeeded
success=true
DataType=double
version=3
OpenSimVersion=4.5
endheader
time	/jointset/ground_pelvis/pelvis_tilt/value	/jointset/ground_pelvis/pelvis_tx/value	/jointset/ground_pelvis/pelvis_ty/value	/jointset/hip_l/hip_flexion_l/value	/jointset/hip_l/hip_adduction_l/value	/jointset/hip_l/hip_rotation_l/value	/jointset/back/lumbar_extension/value	/jointset/patellofemoral_l/patellar_flexion_l/value	/jointset/knee_l/knee_flexion_l/value	/jointset/knee_l/knee_adduction_l/value	/jointset/knee_l/knee_rotation_l/value	/jointset/ankle_l/ankle_angle_l/value	/jointset/subtalar_l/subtalar_angle_l/value	/jointset/ground_pelvis/pelvis_tilt/speed	/jointset/ground_pelvis/pelvis_tx/speed	/jointset/ground_pelvis/pelvis_ty/speed	/jointset/hip_l/hip_flexion_l/speed	/jointset/hip_l/hip_adduction_l/speed	/jointset/hip_l/hip_rotation_l/speed	/jointset/back/lumbar_extension/speed	/jointset/patellofemoral_l/patellar_flexion_l/speed	/jointset/knee_l/knee_flexion_l/speed	/jointset/knee_l/knee_adduction_l/speed	/jointset/knee_l/knee_rotation_l/speed	/jointset/ankle_l/ankle_angle_l/speed	/jointset/subtalar_l/subtalar_angle_l/speed	/forceset/tau_hip_flexion_l	/forceset/tau_hip_adduction_l	/forceset/tau_hip_rotation_l	/forceset/tau_knee_flexion_l	/forceset/tau_ankle_angle_l	/forceset/tau_subtalar_angle_l	/forceset/tau_lumbar_extension	lambda_cid13_p0	lambda_cid13_p1	lambda_cid13_p2	lambda_cid13_p3	lambda_cid13_p4	lambda_cid13_p5	lambda_cid14_p0	/jointset/ground_pelvis/pelvis_tilt/accel	/jointset/ground_pelvis/pelvis_tx/accel	/jointset/ground_pelvis/pelvis_ty/accel	/jointset/hip_l/hip_flexion_l/accel	/jointset/hip_l/hip_adduction_l/accel	/jointset/hip_l/hip_rotation_l/accel	/jointset/back/lumbar_extension/accel	/jointset/patellofemoral_l/patellar_flexion_l/accel	/jointset/knee_l/knee_flexion_l/accel	/jointset/knee_l/knee_adduction_l/accel	/jointset/knee_l/knee_rotation_l/accel	/jointset/ankle_l/ankle_angle_l/accel	/jointset/subtalar_l/subtalar_angle_l/accel	gamma_cid13_p0	gamma_cid13_p1	gamma_cid13_p2	gamma_cid13_p3	gamma_cid13_p4	gamma_cid13_p5	gamma_cid14_p0
0	-0.03944226899259619	0.06887701690915725	0.8959474809269304	0.1955287580552426	-0.3220420419841309	-0.4826926694944678	-0.1379045077516729	0.07015288079084958	0.07015288079084844	-0.1745328141764891	-0.1171938447546943	-0.06701059314715049	0.003773678561279309	0	0	0	0	0	0	0	0	0	0	0	0	0	0.1057078674159674	-0.09909601443728648	-0.03025933547355266	-0.2356180360019965	0.1965503693446651	-0.01566717097520178	-0.05036031529046664	27.44091709687116	-1.006746072435967	3.258494859436557	-2.455232044273197	-515.6926648404057	-80.10540663243134	-39.89786439544704	-4.323218663435725	-1.762155024181806	-0.9562838147221441	12.27755410761383	-2.10168121462464	3.315654284562358	-2.78561127950755	10.17718452567684	10.17718452567677	0.6839332769979589	-0.8332307884584862	2.422165052246772	-0.9879811992532046	-3.051556271338196e-08	1.104509014813482e-07	1.192427303375065e-07	1.535048106632687e-08	-3.012775229337515e-08	-4.604452340610794e-08	-6.652313043172282e-09
0.01	-0.03964836933746146	0.06879005024456372	0.8959010512068079	0.196122572707143	-0.3221455169642891	-0.482526097212633	-0.138049701517302	0.07064742963617415	0.07064742963617429	-0.1745020303025694	-0.1172293660722791	-0.06689427365827853	0.003723394990630492	-0.04101973165682826	-0.01732029179599362	-0.00925680417350091	0.1182392702974758	-0.02059531466749231	0.03318197963538114	-0.02879996047506272	0.09848390013237049	0.09848390013236501	0.006138361667315908	-0.007062376645234109	0.02316260042150083	-0.01000369288152908	0.1012161023213589	-0.09908983874846386	-0.02936445783848338	-0.2298200593424396	0.1878792656994603	-0.01161606266713181	-0.04658350794460981	24.7812030418981	-2.299175895826369	3.463092494256934	-1.441727930100113	-516.4924235543212	-82.79398213122613	-39.90789522171378	-3.961310361283382	-1.706007018793751	-0.9060137665691518	11.51855331760962	-2.02353429330846	3.299584882711251	-2.891369533926138	9.620113747563236	9.620113747562868	0.5760584204042143	-0.6364461869587186	2.248113949377967	-0.998641218552473	-6.921554783433681e-08	1.412808302026403e-07	1.982200691994157e-07	4.975177228519212e-08	-2.444589423764425e-07	-9.52328288039906e-08	-1.270050196873751e-08
0.02	-0.0402586589877893	0.06853207250971309	0.8957629264353694	0.197883068027378	-0.3224519606312219	-0.4820316821185075	-0.1384757311081652	0.07211404168093498	0.07211404168093453	-0.1744104086501928	-0.1173342521731914	-0.06654936688273626	0.003574658913976461	-0.08083786109274127	-0.03420221405142068	-0.01833901026318298	0.2333361336667555	-0.0405937373548624	0.06556856245817341	-0.05616716504694601	0.1944126398865858	0.1944126398865922	0.01216755568686294	-0.01387295666658262	0.04571745733405162	-0.01969050120104726	0.09672433722676003	-0.09908366305964392	-0.02846958020343954	-0.2240220826828687	0.1792081620542598	-0.007564954359062025	-0.04280670059874775	22.18431909361048	-3.603668720468193	3.670827353759733	-0.5893064544360971	-516.3763770374958	-85.31970633269584	-39.937434396161	-4.082898219252685	-1.674481116068492	-0.921364197958378	11.64907272197463	-1.982302818600215	3.156574922044584	-2.499060098871674	9.666152450045809	9.666152450049202	0.6620997474441431	-0.782871463681368	2.300616350456764	-0.9246042868510453	-1.079155329552917e-07	1.721107589239324e-07	2.77197408061325e-07	8.415306350405737e-08	-4.5879013245951e-07	-1.444211342018733e-07	-1.874869089430273e-08
0.03	-0.04126172923285312	0.06810758632785888	0.8955345724588949	0.2007797274101421	-0.3229552002070522	-0.4812176498134352	-0.1391675718010914	0.07452757934090927	0.07452757934090917	-0.174258721912277	-0.117506359359479	-0.06598167504904189	0.003330994560180123	-0.1195764300708558	-0.05060747855737624	-0.0273220983740323	0.3454582607340662	-0.05993512726771801	0.09710539881785757	-0.08195461027805326	0.2878481181571525	0.2878481181571879	0.01815592299840255	-0.02049517632643976	0.06772469655999765	-0.02896729777434373	0.09203605020994449	-0.09515765211845099	-0.02765630274621737	-0.2192028174366725	0.1737314286525083	-0.00729094672761127	-0.03891742651645604	20.4667846615022	-3.514949031673398	3.762918580460909	0.02479793693671175	-516.33161950738	-84.54746000726256	-39.98529836245022	-3.739384280448224	-1.610400583948434	-0.885420743011171	10.91314116199714	-1.892248420448469	3.132326703778732	-2.581632246214193	9.115233197078524	9.115233197080739	0.5651861573289891	-0.5938677136195871	2.136344012224132	-0.9180148599869902	-1.361199952020751e-07	1.935620190670999e-07	3.310461811115282e-07	1.117187999569574e-07	-6.226638181622595e-07	-1.785148766734861e-07	-2.222481153971405e-08
0.04	-0.04264619477636796	0.06752167720772718	0.8952166596762394	0.2047814797561564	-0.3236482919505755	-0.480092231402596	-0.1401098960485253	0.07786206931989306	0.07786206931989238	-0.1740475553143779	-0.1177430828416602	-0.06519679756237587	0.002996802737167232	-0.1571169207832701	-0.0664868017069145	-0.03625077149937446	0.4543547263168887	-0.07856417089338369	0.1278457836114783	-0.1062638759485185	0.3786031036883774	0.3786031036884247	0.02406352768274625	-0.02679621584556522	0.0891545879283689	-0.03779599504436219	0.08734776319311573	-0.09123164117725893	-0.02684302528900399	-0.2143835521904771	0.1682546952507567	-0.007016939096161369	-0.03502815243417522	18.80681758468477	-3.435915424928448	3.856105252011673	0.4890606655869555	-515.4518016936106	-83.62098022736545	-40.04997689912845	-3.843282566112659	-1.569292844785033	-0.9104812008569476	11.00394042507702	-1.839833561162231	2.997284608831899	-2.203424186743283	9.130053902177451	9.130053902177433	0.6459472220049499	-0.7186354355350338	2.185146778941807	-0.8349844261954494	-1.641080549153704e-07	2.148199046004091e-07	3.843768394027273e-07	1.391435971363324e-07	-7.854971429499508e-07	-2.122973910435265e-07	-2.56478998494521e-08
0.05	-0.04440084005658288	0.0667796193428809	0.8948094526017554	0.2098574800749005	-0.3245241168561818	-0.4786636346521447	-0.1412873741759833	0.08209164351049747	0.08209164351049586	-0.1737775538079153	-0.1180417758550139	-0.06420014618957029	0.002576745163366281	-0.1936143213972814	-0.08183204027694722	-0.04519875335375122	0.5603127856852445	-0.09647760568200253	0.1577415192044856	-0.129006836379217	0.4668671274559553	0.4668671274560146	0.02991014787451291	-0.03288798618575396	0.1100814196173343	-0.0461362672586784	0.08265025123645697	-0.08780833000372143	-0.02608653708437867	-0.2106026362858518	0.1637377723566123	-0.006523792738038737	-0.0311972190364659	17.45445941971487	-3.482278537335517	3.942285752357562	0.7934517178209347	-514.6667976907767	-82.92560366429505	-40.12957530032912	-3.523308222690196	-1.503201664980637	-0.8883315864322227	10.31183165932479	-1.748679087166225	2.965859382231393	-2.27599499666928	8.607890724837736	8.60789072483947	0.5501058899462048	-0.5462388477728252	2.032307461423793	-0.8217374598127598	-1.818914379967792e-07	2.1698964762149e-07	4.212132287061462e-07	1.56027375523089e-07	-8.893469916482922e-07	-2.37006725235668e-07	-2.875629912328225e-08
0.06	-0.04651452722566556	0.0658868966319606	0.8943124907269869	0.2159770795806502	-0.3255753922395656	-0.476940052276224	-0.1426855345128351	0.08719052076093479	0.0871905207609338	-0.1734498688050976	-0.1183997447746732	-0.06299705528036502	0.002075647099269571	-0.2289252985570896	-0.09661977092171757	-0.05420173155627239	0.6630745637179962	-0.1136542664488024	0.1868429087053428	-0.1504003178273614	0.5524637156551255	0.5524637156551941	0.03560022695362626	-0.03865139710642411	0.130442495208296	-0.05400409310351695	0.07795273927979356	-0.084385018830185	-0.02533004887974532	-0.2068217203812268	0.1592208494624687	-0.006030646379916938	-0.02736628563876089	16.15380960354258	-3.536640030860724	4.028536411745057	0.962394553805125	-513.1314490555727	-82.08913545135442	-40.22198334033135	-3.605997875272049	-1.45779125973256	-0.921480470485832	10.36468415795626	-1.692478756798444	2.838415390401855	-1.933528390232476	8.596566788495926	8.59656678849537	0.6146389994742799	-0.6529635516313181	2.071995559341075	-0.7404951522999227	-1.992451504831613e-07	2.183556793788982e-07	4.573551224732376e-07	1.7246732153963e-07	-9.907133255639241e-07	-2.613340307887401e-07	-3.18514483324426e-08
0.07000000000000001	-0.04897620502652417	0.06484908058261951	0.8937249842406557	0.2231098584005456	-0.3267947616069989	-0.4749296945008574	-0.1442901258103478	0.09313308259036555	0.09313308259036603	-0.1730658098030609	-0.1188143464591522	-0.06159277869672498	0.001498432991764291	-0.2632127236783801	-0.1108468699350701	-0.06332088915797709	0.762952742177172	-0.1300896132649346	0.2150981452166398	-0.1703000140267824	0.6356039655588623	0.6356039655588656	0.04118244706171147	-0.0442121807221189	0.1503193371438447	-0.06135278397472518	0.07303837950583712	-0.08129108853716673	-0.02457499647627961	-0.2036092682109818	0.1550144476888943	-0.005199001647915974	-0.02341587696668961	14.94992233099485	-3.737457488818786	4.118150760171307	1.101352046887375	-511.8027409530789	-81.54409004514109	-40.32481886702392	-3.310494415569906	-1.390649177702137	-0.9105312935655498	9.720089610670815	-1.599630067736194	2.799439698455513	-1.985501087549228	8.106057798306411	8.106057798296986	0.5257332715104243	-0.4990608964660386	1.931500469172889	-0.7192495178667595	-2.068721728235896e-07	2.006696002647126e-07	4.747728131444725e-07	1.79191739609661e-07	-1.039599768905259e-06	-2.756243590160549e-07	-3.444953585789458e-08
0.08	-0.0517748329955971	0.06367189755203176	0.8930456066005972	0.2312255599891879	-0.3281745979273368	-0.4726407119769855	-0.1460871762404048	0.09989370766023291	0.0998937076602346	-0.1726267846489358	-0.119282841005773	-0.05999253930202719	0.000850293282879841	-0.296315332200168	-0.1244931671710513	-0.07257596230177429	0.8596591174672491	-0.1457476570296908	0.2425678584064128	-0.1888921443362962	0.7160763637423543	0.7160763637422966	0.04659345737118767	-0.04942996953491315	0.1696350574198387	-0.06818921337935303	0.06812401973188328	-0.07819715824414977	-0.02381994407281611	-0.2003968160407323	0.1508080459153217	-0.004367356915915408	-0.01946546829461734	13.79157169813415	-3.944878322474753	4.207253611116777	1.120767594787663	-509.81068847059	-80.87356024514486	-40.4355477712572	-3.369034555371537	-1.341630904258275	-0.9486635789043329	9.730323524136544	-1.537018146523278	2.681310726097066	-1.672015212251053	8.062996444446972	8.062996444447251	0.5803970397524748	-0.5843645910512123	1.959771227430104	-0.6380428589838539	-2.138716667675046e-07	1.817543527071983e-07	4.909824907127488e-07	1.852893494250785e-07	-1.085100412854703e-06	-2.892671403191273e-07	-3.701555488762344e-08
0.09	-0.05489937995730879	0.06236111370516215	0.8922727917191179	0.2402940669318928	-0.3297071922694654	-0.4700812660090493	-0.1480628769741079	0.1074468414118134	0.1074468414118132	-0.172134285639609	-0.1198025178488611	-0.05820156896197694	0.000136483511616295	-0.3283959236306925	-0.137566874294558	-0.08201821655958873	0.9535204333691888	-0.1606383373436495	0.269192910488014	-0.2060406603554849	0.7941077094260492	0.7941077094259538	0.05187201747290136	-0.05444804000358595	0.1884622545057198	-0.07448626314427306	0.06297178815167535	-0.07495143707987356	-0.0230541597498607	-0.197546781542823	0.1468105962496867	-0.003549309587639482	-0.01537847747846297	12.67974673275136	-4.151044710824764	4.292163578777489	1.196284032543305	-508.0852236872622	-80.17750660613805	-40.55147373377143	-3.097858601737816	-1.275694273753035	-0.946904489494609	9.135734729674864	-1.445225129198571	2.63376901069425	-1.705168489434395	7.606809502767746	7.606809502761918	0.49652201505052	-0.4518551040059913	1.829673984764167	-0.6126471052581928	-2.130769256323464e-07	1.451290098653132e-07	4.926754809857845e-07	1.824975168512767e-07	-1.088393926637305e-06	-2.955140927607436e-07	-3.965428726486783e-08
